<?xml version="1.0" encoding="utf-8"?>
<!-- Generator: Adobe Illustrator 25.2.1, SVG Export Plug-In . SVG Version: 6.00 Build 0)  -->
<svg version="1.1" id="Layer_1" xmlns="http://www.w3.org/2000/svg" xmlns:xlink="http://www.w3.org/1999/xlink" x="0px" y="0px"
	 viewBox="0 0 800 185" style="enable-background:new 0 0 800 185;" xml:space="preserve">
<style type="text/css">
	.st0{fill:#FFFFFF;}
</style>
<g>
	<path class="st0" d="M731.1,185c-5.8,0-11.8-1.5-18.9-4.8c-10.5-4.8-21-9.6-31.5-14.4c-21.3-9.7-43.4-19.8-64.8-30.2
		c-26.1-12.7-55.4-19.1-89.5-19.4c-15.2-0.2-30.6-0.4-45.5-0.7c-23.5-0.4-47.8-0.9-71.7-0.9c-15.8,0-30,0.2-43.5,0.6
		c-5.8,0.2-11.9,0.3-18.2,0.3c-22.7,0-45.7-1.1-67.9-2.2c-14.1-0.7-28.6-1.4-42.9-1.8c-1.9-0.1-3.7-0.1-5.6-0.1
		c-15.7,0-31.8,1.8-47.4,3.6c-7.5,0.8-15.3,1.7-23,2.4c-21.9,1.9-40.9,6.9-58.3,15.5c-4,1.9-8.4,2.2-12.3,2.2c-1.3,0-2.6,0-3.9-0.1
		c-1.2,0-2.5-0.1-3.7-0.1c-1.3,0-2.5,0-3.5,0.1c-0.8,0.1-1.6,0.1-2.4,0.1c-2.1,0.1-4.7,0.2-5.7,0.9c-5,3.7-9.9,5.4-15.1,5.4
		c-4.1,0-8.5-1.1-13.4-3.5c-4.1-2-9.2-2.6-13.4-3.1c-1.8-0.2-3.5-0.4-4.9-0.7l-2.1-0.4l-0.9-2c-2-4.7-4.3-9.2-6.5-13.7
		C9.7,108,4.9,98.5,2.9,88c-4.1-21.3-5.9-43.7,8.7-63C23.9,8.9,41.3,0,60.5,0c1.9,0,3.8,0.1,5.7,0.3c19.2,1.7,32.9,8.7,41.7,21.4
		c1.1,1.6,4.6,2.8,7.6,3.9c1.3,0.5,2.7,0.9,3.9,1.4c0.6,0.2,1.6,0.4,2.5,0.5c1.7,0.2,3.9,0.4,5.9,1.6c19.9,12.1,42.4,14.2,63.6,14.6
		c35.3,0.7,71.2,1,105.9,1.3c36.8,0.3,74.9,0.6,112.3,1.5c18.9,0.4,38.1,2,56.6,3.5c14.6,1.2,29.7,2.4,44.5,3
		c3.1,0.1,6.2,0.2,9.2,0.3c28.1,0,56.8-1.3,84.6-2.5c19.9-0.9,40.4-1.8,60.6-2.2c9.6-0.2,20-4.8,28.9-9.3
		c7.4-3.7,14.5-8.6,21.4-13.2c3.9-2.6,7.9-5.4,12-7.9c4.2-2.6,10-3.2,14.1-3.2c9,0,21.4,2.7,27.4,8.7c2.9,2.9,3.5,5.7,3.5,7.6
		c0,9.8,5.1,13.7,11.7,18.7c3.4,2.5,6.8,5.2,9.6,8.8c8.4,11,8.6,24.4,0.4,33.2c-6.4,6.9-7.9,14.2-8.4,25.3
		c-1.4,32.2-15.7,54.2-42.4,65.4C739.4,184.2,735.3,185,731.1,185L731.1,185z"/>
	<g>
		<path d="M493.7,58c8.7,0,17.4-0.7,26.1-0.7c48.5-0.1,96.9-3.7,145.4-4.7c10.3-0.2,21.1-5,30.6-9.8c11.8-6,22.4-14.3,33.7-21.3
			c10.1-6.3,38.7-0.3,38.7,9.7c-0.1,17.5,14.7,20.2,22.1,29.9c6.6,8.7,8,20,0.6,28c-7.6,8.2-9,17.2-9.4,27.9
			c-1.2,27.9-12.4,50.3-39.9,61.8c-9.6,4-18.7,1.9-27.7-2.3c-32.1-14.9-64.4-29.1-96.2-44.6c-28.9-14.1-59.5-19.5-91.3-19.8
			c-53.6-0.6-107.3-2.5-160.9-1c-43.1,1.2-85.9-2.5-128.8-3.7c-25.4-0.7-50.9,3.7-76.4,5.9c-20.8,1.8-40.8,6.6-59.8,15.9
			c-6.1,3-14.5,1.2-21.8,1.8c-3.5,0.3-7.7,0-10.2,1.9c-8,5.9-15.2,5.9-24.2,1.6c-6.5-3.2-14.6-3.2-19.3-4.1
			C18.4,115,9.7,101.7,6.9,87.3c-3.9-20.1-5.9-41.5,8-59.7c12.7-16.7,30.7-25,50.9-23.2c14.3,1.3,29.1,5.9,38.7,19.6
			c2.5,3.6,8.6,4.8,13.3,6.7c2.4,1,5.7,0.5,7.8,1.8c20.2,12.3,43.1,14.8,65.7,15.2c72.7,1.5,145.5,1.2,218.2,2.8
			c33.7,0.7,67.3,5,101,6.5c24.5,1.1,49.1,0.2,73.7,0.7 M722.5,111.7l0.2,0.1c-8.1-7.6-16.3-15.1-25.5-23.7c-1.5,1.2-5.1,4-9.2,7.2
			c4,3.5,9.9,7,2.8,12.6c-1.1,0.9-2.8,0.9-4.9,1.6c0.7-3.6,1.2-6.1,2.4-11.7c-3.9,3.2-5.3,5.3-7,5.6c-3.4,0.7-7.8,1.8-10.3,0.3
			c-8.9-5.4-18.6-5.2-28.3-5.4c-19.5-0.5-38.9-1-58.4-1.5c0-1.1,0-2.2,0-3.4c10.7,0,21.4-0.4,32,0.1c22.7,1,44.1-1.8,62.8-16.5
			c3.9-3.1,9.9-3.6,15-5.3c0.2,0.7,0.4,1.4,0.6,2.1c-8.5,4.9-16.9,9.8-25.4,14.7c0.6,1.3,1.3,2.6,1.9,3.9c7.6-3.1,15.8-5.2,22.6-9.5
			c7.5-4.8,14.1-5.3,19.4,1.5c1.6,2,2.8,4.3,5.4,8.3c0-4.3,0-6.4,0-8.5c3.3,0.3,6.2,0.5,9.1,0.7c0.2-0.9,0.4-1.8,0.6-2.7
			c-8.3-3.2-16.6-6.4-25.3-9.8c2.8-0.5,6.5-1.9,9.9-1.5c3.8,0.4,7.4,2.6,12.2,4.4c-1.1-2.6-1.8-4-2.6-5.8c2.4-0.6,4.7-1.2,8.5-2.2
			c-3.4-3.8-6-6.6-8.5-9.4c0.4-0.7,0.8-1.4,1.3-2.2c9.4,5.1,18.2,12.3,28.2,14.8c10.2,2.6,21.7,0.6,32.6,0.6
			c-2.9-4.3-5.8-6.5-9.1-8.1c-10.5-5.2-18.4-11.7-16.4-25.1c0.3-1.7-1.6-4.5-3.3-5.6c-12.6-8.4-21.5-7.8-33.5,2.1
			c-9.6,7.9-18.2,17.1-28.5,24c-19.8,13.3-39.9,26.5-64.1,30.6c-7.9,1.3-16,1.4-24.1,2c-0.2-1.3-0.3-2.5-0.5-3.8
			c15-0.1,29.9-0.5,43.2-11.5c-4.5,0-7.8,0-11.1,0c0-0.8,0-1.6,0-2.4c5.1-0.4,10.2-0.9,15.3-1.3c0-0.2,0-0.4,0-0.6
			c-13.1,0-26.3,0-39.4,0c0-0.6,0-1.3,0-1.9c8.8-0.7,17.5-1.4,26.3-2.1c-0.1-0.8-0.1-1.6-0.2-2.5c-3.3,0-6.7,0-10,0
			c-63.5-0.6-127-0.9-190.5-2c-10-0.2-20-5.2-30.1-5.3c-37.2-0.5-74.5,0.1-111.7,0.3c-31.3,0.2-62.6,0.8-93.9,0.7
			c-7.8,0-15.9-3.9-23.2-2.5C161.7,60,145,57,128.7,49.3c-1.8-0.9-4-2.3-5.6-2c-13.7,3-19.5-5.5-24.7-15.7c-0.7-1.4-3.7-1.5-5.7-2.2
			c-0.5,2-1.9,4.2-1.4,5.9c0.9,2.8,3,5.3,4.5,7.9c-0.6,0.4-1.1,0.7-1.7,1.1c-4.5-4.8-9.1-9.7-14.9-15.9c-1.3,6.4-2.8,9.8-2.2,12.8
			c0.4,2.2,4.2,6,5.2,5.7c7.5-2.9,11.1,2.6,16.2,5.8c7.9,4.9,16.1,10.7,25,12.5c16.6,3.3,33.7,4.1,50.7,5.7
			c5.8,0.5,11.6,0.1,17.4,0.1c-12.3,2.7-24.5,4.9-36.6,4.4c-21-0.9-43.7,5.6-61.4-12.2c-8-3.1-15.9-7-24.2-8.5
			c-1.9-0.3-5.3,7.8-8.2,11.9c-0.5,0.7-1.7,0.8-2.8,1.4c-0.5-3.2-0.9-6.2-1.4-9.2c-1.3-0.1-2.5-0.1-3.8-0.2
			C52.6,64.7,52,71,51.5,77.7c-2-1.5-3.8-2.9-5.5-4.2c-0.6,0.4-1.2,0.9-1.8,1.3c2,4.4,3.9,8.7,5.3,11.7c6.4-1,13.9-0.3,15.2-2.8
			c3.6-7,10.3-10.8,14.3-16.3c5-6.9,8.7-6.5,14.8-4.5c0.4,4.3,0.8,8.5,1.2,13c2.4,1.4,5.1,2.9,7.9,4.4c0.1,1.2,0.3,2.4,0.4,3.7
			c-8.7,2.8-17.2,6-26,8.3c-5.8,1.6-12,1.6-17.8,3c-5.8,1.4-11.3,3.8-17,5.8c0.2,1.1,0.4,2.3,0.6,3.4c4.1,1.3,8.1,2.6,11.5,3.6
			c-3.5,4.9-6.8,9.6-11,15.5c7.6-0.4,12.7-0.7,20.1-1.2c-4.3-3.4-6.4-5-8-6.3c5.6-5.2,10.5-9.8,15.3-14.2c-1-0.7-2.4-1.7-4.6-3.3
			c31.3-5.9,60.7-15.9,92.2-10.5c-19,2.8-38.1,5.6-57.1,8.3c0.1,0.7,0.2,1.5,0.4,2.2c3.7,0.4,7.3,0.8,13.2,1.5
			c-28.1,10-28.5,10.3-30.7,25c15.4,0.7,27.7-6.7,26.9-16.3c20.8-7.6,64.8-14.3,71.9-7.4c-5.9,0.5-11.3,0.9-16.6,1.5
			c-5.3,0.6-10.5,1.5-15.8,2.3c0.1,1.1,0.3,2.2,0.4,3.3c52.9-13.1,106.3-9.5,159.6-4.7c-35.4-9-71.2-9-107.4-7.2
			c11.6-2.8,23.2-3.7,34.9-4.5c34.2-2.2,68.1-1.9,101.7,6.6c10.8,2.7,22.2,4.1,33.3,4.1c46.4-0.1,92.9-1.5,139.3-1.3
			c31.8,0.1,63.1,3.4,92.7,17.5c20.6,9.8,42.6,16.4,63.7,25.3c14.3,6,28.4,13,42,20.5c18.9,10.5,43.1,5.1,53.8-13.2
			c1.4-2.4,1.1-7.2-0.5-9.4c-1.8-2.4-6-3.1-10.6-5.2c0,5,0,9.3,0,15.2c-8.2-9.8-6.9-16.3,3.1-21.4c-18.6-7-21.3,4.8-22.1,20.6
			c-2.4-4.1-3.4-5.7-4.3-7.4c-0.7,1.2-1.4,2.4-2.1,3.6c-1-6.1,0.1-11.6,1.2-17.1C730.9,122.9,731.2,115.7,722.5,111.7z M26.9,83.2
			c12.8-19.4,19.3-41.6,43.1-51.3c-5.3-3.8-9.6-7-14-10.3c0.3-0.6,0.6-1.2,0.8-1.8c4.1,1.6,8.1,3.2,11.1,4.4c2.6-1.7,4.8-3.1,7.8-5
			c-12.9-3.8-15.8-2.9-26.3,3.4c-2.9,1.7-7.2,1-10.8,1.4C14,37.2,7,55.9,17.1,78.8c-0.2-3.2-0.5-6.4-1-12.4
			C20.6,73.3,23.4,77.7,26.9,83.2z M766.3,132.1c0.9-0.5,1.8-0.9,2.6-1.4c-3.5-6.4-5.7-14.1-10.7-19c-9.2-8.9-16.2-2.1-21.4,8.1
			c-0.7-1-1.4-1.9-2.1-2.9c4.3-10.1,8.7-20.2,13.2-30.7c24.4,1.7,26.5,1.1,34.1-11.2c-7.8,1.8-14.1,4.7-20.3,4.5
			c-6.3-0.2-12.5-3.5-19-5.5c-6.2,10.5,0.9,27.1-12.6,34.5c1.7,7.5,3.1,13.9,4.6,20.4C746.1,120.5,756.3,124.8,766.3,132.1z
			 M40.4,97.6c-0.5-0.7-1-1.3-1.5-2c-1.6,0.7-3.5,1-4.9,2.1c-7.1,5.4-7.3,12.7-4.9,20.4c0.7,2.2,2.1,4.3,3.6,6c0.3,0.3,4-1.3,4-1.9
			c-0.1-2.4-1.3-4.7-1.7-7.1c-0.6-2.9-1.8-6.3-0.9-8.8C35.2,103.1,38.2,100.5,40.4,97.6z"/>
		<path class="st0" d="M93.5,63c17.6,17.8,40.4,11.3,61.4,12.2c12.1,0.5,24.3-1.7,36.6-4.4c-5.8,0-11.7,0.4-17.4-0.1
			c-16.9-1.5-34-2.4-50.7-5.7c-8.8-1.8-17.1-7.6-25-12.5c-5.1-3.2-8.8-8.7-16.2-5.8c-0.9,0.4-4.8-3.4-5.2-5.7c-0.5-3,1-6.4,2.2-12.8
			c5.8,6.2,10.3,11,14.9,15.9c0.6-0.4,1.1-0.7,1.7-1.1c-1.6-2.6-3.7-5.1-4.5-7.9c-0.5-1.7,0.9-3.9,1.4-5.9c2,0.7,5,0.9,5.7,2.2
			c5.1,10.2,11,18.7,24.7,15.7c1.7-0.4,3.8,1.1,5.6,2C145,57,161.7,60,180,56.4c7.3-1.4,15.4,2.5,23.2,2.5
			c31.3,0.1,62.6-0.5,93.9-0.7c37.2-0.3,74.5-0.8,111.7-0.3c10,0.1,20,5.1,30.1,5.3c63.5,1.1,127,1.4,190.5,2c3.3,0,6.7,0,10,0
			c0.1,0.8,0.1,1.6,0.2,2.5c-8.8,0.7-17.5,1.4-26.3,2.1c0,0.6,0,1.3,0,1.9c13.1,0,26.3,0,39.4,0c0,0.2,0,0.4,0,0.6
			c-5.1,0.4-10.2,0.9-15.3,1.3c0,0.8,0,1.6,0,2.4c3.3,0,6.6,0,11.1,0c-13.3,11-28.2,11.4-43.2,11.5c0.2,1.3,0.3,2.5,0.5,3.8
			c8-0.6,16.2-0.7,24.1-2c24.2-4.1,44.3-17.3,64.1-30.6c10.3-6.9,18.9-16.1,28.5-24c12-10,20.9-10.5,33.5-2.1
			c1.7,1.1,3.6,3.9,3.3,5.6c-2,13.4,5.9,19.9,16.4,25.1c3.2,1.6,6.2,3.8,9.1,8.1c-10.9,0-22.3,2-32.6-0.6
			c-10-2.5-18.9-9.7-28.2-14.8c-0.4,0.7-0.8,1.4-1.3,2.2c2.5,2.8,5.1,5.6,8.5,9.4c-3.8,1-6.2,1.6-8.5,2.2c0.8,1.8,1.4,3.2,2.6,5.8
			c-4.8-1.8-8.4-3.9-12.2-4.4c-3.5-0.4-7.1,1-9.9,1.5c8.7,3.3,17,6.6,25.3,9.8c-0.2,0.9-0.4,1.8-0.6,2.7c-2.9-0.2-5.9-0.5-9.1-0.7
			c0,2.2,0,4.3,0,8.5c-2.6-4-3.8-6.2-5.4-8.3c-5.3-6.8-11.9-6.3-19.4-1.5c-6.8,4.3-15,6.4-22.6,9.5c-0.6-1.3-1.3-2.6-1.9-3.9
			c8.5-4.9,16.9-9.8,25.4-14.7c-0.2-0.7-0.4-1.4-0.6-2.1c-5,1.7-11,2.2-15,5.3c-18.7,14.7-40.1,17.5-62.8,16.5
			c-10.7-0.5-21.4-0.1-32-0.1c0,1.1,0,2.2,0,3.4c19.5,0.5,38.9,1,58.4,1.5c9.7,0.2,19.4,0,28.3,5.4c2.5,1.5,6.9,0.4,10.3-0.3
			c1.8-0.4,3.2-2.4,7-5.6c-1.1,5.6-1.6,8.1-2.4,11.7c2.1-0.7,3.8-0.8,4.9-1.6c7.1-5.5,1.2-9-2.8-12.6c4.1-3.2,7.7-6.1,9.2-7.2
			c9.2,8.6,17.4,16.2,25.5,23.7c-3.9,5.4-6.9,14-11.9,15.5c-10.6,3.1-21.9,5.5-33.7,2c-13.1-3.8-26.8-5.7-40.2-8.4
			c-0.3,1.4-0.7,2.7-1,4.1c24.6,6.4,49.2,12.8,73.8,19.1c-1.1,0.8-2.2,1.6-3.3,2.3c0.9,3.7,0.5,8.8,2.9,10.9
			c4.1,3.7,10,5.3,13.9-1.3c3.2-5.4,3-10.5-3-14c-3.2-1.8-6.6-3.1-10.5-4.8c17-2.8,21.7-12.9,12.8-25.7c8.7,4,8.3,11.2,6.8,18.9
			c-1.1,5.5-2.1,11-1.2,17.1c0.7-1.2,1.4-2.4,2.1-3.6c0.9,1.6,1.9,3.3,4.3,7.4c0.8-15.8,3.5-27.6,22.1-20.6
			c-10,5.1-11.3,11.6-3.1,21.4c0-5.9,0-10.2,0-15.2c4.6,2.1,8.8,2.8,10.6,5.2c1.6,2.2,1.9,7,0.5,9.4c-10.6,18.4-34.9,23.7-53.8,13.2
			c-13.6-7.6-27.6-14.5-42-20.5c-21-8.9-43.1-15.5-63.7-25.3c-29.6-14.1-60.9-17.4-92.7-17.5c-46.4-0.2-92.9,1.2-139.3,1.3
			c-11.1,0-22.5-1.4-33.3-4.1c-33.6-8.5-67.5-8.8-101.7-6.6c-11.7,0.8-23.3,1.7-34.9,4.5c36.1-1.9,72-1.8,107.4,7.2
			c-53.4-4.8-106.7-8.4-159.6,4.7c-0.1-1.1-0.3-2.2-0.4-3.3c5.3-0.8,10.5-1.7,15.8-2.3c5.4-0.6,10.8-1,16.6-1.5
			c-7.1-6.9-51.1-0.2-71.9,7.4c0.8,9.7-11.5,17.1-26.9,16.3c2.2-14.7,2.5-15,30.7-25c-5.9-0.6-9.6-1.1-13.2-1.5
			c-0.1-0.7-0.2-1.5-0.4-2.2c19-2.8,38.1-5.6,57.1-8.3c-31.5-5.4-60.9,4.6-92.2,10.5c2.1,1.5,3.6,2.5,4.6,3.3
			c-4.8,4.5-9.8,9.1-15.3,14.2c1.6,1.3,3.7,2.9,8,6.3c-7.3,0.4-12.5,0.7-20.1,1.2c4.2-5.9,7.5-10.6,11-15.5
			c-3.4-1.1-7.4-2.3-11.5-3.6c-0.2-1.1-0.4-2.3-0.6-3.4c5.7-2,11.2-4.3,17-5.8c5.8-1.4,12-1.5,17.8-3c8.8-2.4,17.4-5.5,26-8.3
			c-0.1-1.2-0.3-2.4-0.4-3.7c-2.7-1.5-5.5-3.1-7.9-4.4c-0.4-4.5-0.8-8.7-1.2-13L93.5,63z M740.5,41c2.7-1.2,5.3-2.4,8.6-3.8
			c1.7,5.4,3.4,10.7,5.1,16c0.8-0.3,1.6-0.7,2.4-1c-2-7.9-0.1-17.5-11.2-21.3c-8.7-2.9-15.3,0.2-21.1,6.3
			c-6.6,6.8-13.2,13.5-19.7,20.4c-2.1,2.2-3.9,4.7-5.8,7c0.7,0.6,1.4,1.3,2.1,1.9c5.5-4.2,11.2-8.4,16.6-12.8
			c12.8-10.3,15.1-9.9,23.8,4.3c6,9.9,21.4,13.6,29.6,7.6c-6.8-1.8-15.4-1.8-20.7-6C745.3,55.7,743.7,47.4,740.5,41z M346.6,69.5
			c-40.5-8.5-81-4.8-120.4,0C265.6,69.5,306.1,69.5,346.6,69.5z"/>
		<path class="st0" d="M26.9,83.2c-3.5-5.5-6.4-9.9-10.8-16.8c0.5,6.1,0.7,9.2,1,12.4C7,55.9,14,37.2,38.7,24.1
			c3.6-0.4,8,0.3,10.8-1.4c10.5-6.3,13.4-7.1,26.3-3.4c-3,1.9-5.2,3.3-7.8,5c-3-1.2-7.1-2.8-11.1-4.4c-0.3,0.6-0.6,1.2-0.8,1.8
			c4.4,3.2,8.8,6.4,14,10.3C46.2,41.6,39.7,63.8,26.9,83.2z"/>
		<path class="st0" d="M766.3,132.1c-10-7.3-20.2-11.6-31.6-3c-1.5-6.5-2.9-12.9-4.6-20.4c13.5-7.4,6.4-24.1,12.6-34.5
			c6.6,2,12.7,5.3,19,5.5c6.2,0.2,12.6-2.6,20.3-4.5c-7.6,12.3-9.7,12.9-34.1,11.2c-4.5,10.5-8.9,20.6-13.2,30.7
			c0.7,1,1.4,1.9,2.1,2.9c5.2-10.2,12.2-17,21.4-8.1c5,4.8,7.2,12.5,10.7,19C768,131.2,767.2,131.6,766.3,132.1z"/>
		<path class="st0" d="M93.6,62.8c-6-2.1-9.8-2.4-14.8,4.5c-4,5.5-10.6,9.3-14.3,16.3c-1.3,2.5-8.8,1.8-15.2,2.8
			c-1.3-3-3.3-7.3-5.3-11.7c0.6-0.4,1.2-0.9,1.8-1.3c1.8,1.4,3.6,2.7,5.5,4.2c0.6-6.8,1.1-13.1,1.6-19.4c1.3,0.1,2.5,0.1,3.8,0.2
			c0.4,3,0.9,6,1.4,9.2c1.1-0.5,2.3-0.7,2.8-1.4c2.9-4.1,6.3-12.3,8.2-11.9c8.3,1.5,16.2,5.5,24.2,8.5C93.5,63,93.6,62.8,93.6,62.8z
			"/>
		<path class="st0" d="M40.4,97.6c-2.2,2.9-5.2,5.5-6.3,8.7c-0.9,2.5,0.4,5.9,0.9,8.8c0.5,2.4,1.6,4.7,1.7,7.1c0,0.6-3.7,2.2-4,1.9
			c-1.5-1.7-2.9-3.8-3.6-6c-2.4-7.7-2.1-15,4.9-20.4c1.3-1,3.2-1.4,4.9-2.1C39.4,96.3,39.9,97,40.4,97.6z"/>
		<path d="M722.5,111.7c8.9,12.8,4.1,22.9-12.8,25.7c3.9,1.8,7.4,3,10.5,4.8c6,3.4,6.2,8.6,3,14c-3.9,6.5-9.8,5-13.9,1.3
			c-2.4-2.1-2-7.2-2.9-10.9c1.1-0.8,2.2-1.6,3.3-2.3c-24.6-6.4-49.2-12.8-73.8-19.1c0.3-1.4,0.7-2.7,1-4.1
			c13.4,2.7,27.1,4.6,40.2,8.4c11.8,3.5,23.1,1.1,33.7-2c5.1-1.5,8-10.1,11.9-15.5C722.7,111.8,722.5,111.7,722.5,111.7z"/>
		<path d="M740.5,41c3.2,6.4,4.8,14.7,9.9,18.7c5.3,4.2,13.8,4.2,20.7,6c-8.2,6-23.6,2.3-29.6-7.6c-8.7-14.3-11.1-14.7-23.8-4.3
			c-5.4,4.4-11.1,8.5-16.6,12.8c-0.7-0.6-1.4-1.3-2.1-1.9c1.9-2.3,3.7-4.8,5.8-7c6.5-6.9,13.1-13.6,19.7-20.4
			c5.8-6.1,12.4-9.2,21.1-6.3c11.1,3.8,9.2,13.4,11.2,21.3c-0.8,0.3-1.6,0.7-2.4,1c-1.7-5.3-3.4-10.6-5.1-16
			C745.8,38.7,743.2,39.8,740.5,41z"/>
		<path d="M346.6,69.5c-40.5,0-81,0-120.4,0C265.6,64.7,306.2,61,346.6,69.5z"/>
	</g>
</g>
</svg>
