<?xml version="1.0" encoding="utf-8"?>
<!-- Generator: Adobe Illustrator 25.2.1, SVG Export Plug-In . SVG Version: 6.00 Build 0)  -->
<svg version="1.1" id="Layer_1" xmlns="http://www.w3.org/2000/svg" xmlns:xlink="http://www.w3.org/1999/xlink" x="0px" y="0px"
	 viewBox="0 0 1000 1000" style="enable-background:new 0 0 1000 1000;" xml:space="preserve">
<style type="text/css">
	.st0{fill:#2892E0;}
	.st1{fill:#FFFFFF;}
</style>
<circle class="st0" cx="500" cy="500" r="500"/>
<g>
	<path class="st1" d="M384.6,717.8c-1.2,6-5.4,8.4-11.4,8.4h-51c-5.4,0-8.4-2.4-7.2-8.4l92.4-435c1.2-6,5.4-9,10.8-9h51
		c6,0,9,3,7.8,9L384.6,717.8z"/>
	<path class="st1" d="M677.4,663.2c7.2,0,10.2,4.2,6,10.8l-21.6,45.6c-2.4,4.2-6,6.6-10.8,6.6H469.8c-5.4,0-8.4-2.4-7.2-8.4
		l92.4-435c1.2-6,6-9,11.4-9h51c6,0,8.4,3,7.2,9L545.4,656c-0.6,4.8,1.2,7.2,6,7.2H677.4z"/>
</g>
</svg>
